<svg 
 xmlns="http://www.w3.org/2000/svg"
 xmlns:xlink="http://www.w3.org/1999/xlink"
 width="114px" height="26px">
<path fill-rule="evenodd"  fill="rgb(255, 255, 255)"
 d="M113.909,11.022 C113.909,11.094 113.654,11.388 113.329,11.779 C113.003,12.170 112.756,12.425 112.585,12.545 C112.415,12.680 112.220,12.790 111.999,12.874 C111.778,12.958 111.519,12.903 111.349,12.903 C111.140,12.895 110.956,12.908 110.670,12.748 C110.383,12.589 110.132,12.389 109.915,12.150 C109.358,11.551 108.727,11.005 108.022,10.510 L107.569,10.198 L107.047,10.498 C106.575,10.777 105.932,11.112 105.120,11.503 C104.307,11.894 103.769,12.126 103.506,12.197 C103.180,12.285 102.909,12.329 102.693,12.329 C102.491,12.329 102.236,12.247 101.926,12.084 C101.617,11.920 101.385,11.739 101.230,11.539 C101.067,11.340 100.970,11.276 100.940,11.348 C100.885,11.483 100.740,11.685 100.504,11.952 C100.268,12.220 100.057,12.417 99.871,12.545 C99.414,12.856 98.853,13.035 98.188,13.083 C97.522,13.131 96.937,13.031 96.434,12.784 C95.978,12.553 95.602,12.277 95.308,11.958 C95.014,11.639 94.867,11.344 94.867,11.072 C94.867,11.000 94.878,10.955 94.902,10.935 C94.925,10.915 94.967,10.917 95.029,10.941 C96.539,11.595 97.762,11.695 98.699,11.240 C98.892,11.144 99.029,11.030 99.111,10.899 C99.192,10.767 99.248,10.574 99.279,10.318 C99.310,10.063 99.326,9.652 99.326,9.085 C99.326,8.120 99.287,7.637 99.209,7.637 C99.147,7.637 98.787,7.733 98.130,7.924 C97.379,8.148 96.864,8.235 96.585,8.187 C96.307,8.140 96.167,7.936 96.167,7.577 C96.167,7.354 96.243,7.166 96.394,7.014 C96.545,6.863 96.752,6.767 97.015,6.727 C97.046,6.719 97.146,6.705 97.317,6.685 C97.487,6.665 97.663,6.643 97.845,6.619 C98.027,6.595 98.195,6.576 98.350,6.559 L99.279,6.440 L99.302,5.458 L99.337,4.477 L98.513,4.477 C97.971,4.485 97.576,4.541 97.328,4.644 C97.104,4.740 96.856,4.792 96.585,4.800 C96.407,4.808 96.299,4.796 96.260,4.764 C96.221,4.732 96.198,4.636 96.191,4.477 C96.167,4.245 96.229,4.022 96.376,3.806 C96.500,3.607 96.672,3.427 96.893,3.268 C97.114,3.108 97.274,3.044 97.375,3.076 C97.429,3.092 97.611,3.160 97.921,3.280 C98.191,3.383 98.486,3.439 98.803,3.447 L99.279,3.471 L99.279,2.992 C99.279,2.649 99.256,2.230 99.209,1.735 C99.178,1.360 99.171,0.667 99.186,0.572 C99.202,0.476 99.264,0.368 99.372,0.248 C99.504,0.097 99.695,0.013 99.947,-0.003 C100.198,-0.019 100.547,0.235 100.756,0.363 C100.949,0.482 101.018,0.692 101.111,0.964 C101.204,1.235 101.172,1.735 101.102,1.975 C101.032,2.222 100.998,2.542 100.998,2.932 L100.998,3.519 L101.625,3.519 C101.880,3.519 102.064,3.531 102.176,3.555 C102.288,3.579 102.383,3.631 102.461,3.711 C102.592,3.838 102.658,3.930 102.658,3.986 C102.658,4.042 102.596,4.129 102.472,4.249 C102.333,4.369 102.054,4.437 101.636,4.453 L100.998,4.501 L100.998,5.362 L100.998,6.224 L101.683,6.152 C102.139,6.105 102.433,6.105 102.565,6.152 C102.681,6.184 102.747,6.272 102.762,6.416 C102.778,6.559 102.739,6.671 102.646,6.751 C102.592,6.799 102.422,6.869 102.135,6.960 C101.849,7.052 101.555,7.130 101.253,7.194 L100.998,7.254 L100.998,9.061 C100.998,10.266 101.013,10.528 101.044,10.552 C101.067,10.584 101.225,10.552 101.732,10.565 C101.879,10.541 102.264,10.591 103.214,10.474 C103.579,10.428 104.088,10.369 104.400,10.282 C104.917,10.138 105.340,9.943 105.688,9.768 C106.052,9.584 106.253,9.460 106.292,9.396 C106.331,9.333 106.261,9.233 106.083,9.097 C105.897,8.946 105.553,8.746 105.050,8.499 C104.547,8.251 104.167,8.096 103.912,8.032 C103.633,7.952 103.461,7.862 103.395,7.762 C103.329,7.663 103.343,7.505 103.436,7.290 C103.637,6.859 103.999,6.703 104.522,6.823 C105.044,6.943 105.770,7.350 106.699,8.044 C106.946,8.219 107.105,8.307 107.175,8.307 C107.237,8.307 107.362,8.189 107.552,7.954 C107.742,7.719 107.891,7.493 107.999,7.278 C108.192,6.887 108.181,6.597 107.964,6.410 C107.747,6.222 107.264,6.085 106.513,5.997 C106.072,5.941 105.776,5.921 105.625,5.937 C105.474,5.953 105.228,6.021 104.887,6.140 C104.461,6.292 104.189,6.372 104.069,6.380 C103.949,6.388 103.854,6.328 103.784,6.200 C103.722,6.081 103.740,5.941 103.836,5.781 C103.933,5.622 104.094,5.466 104.318,5.315 C104.551,5.171 104.845,5.099 105.201,5.099 L105.735,5.099 L105.735,4.596 L105.735,4.094 L105.247,4.094 C104.914,4.094 104.504,4.158 104.016,4.285 C103.521,4.413 103.219,4.473 103.111,4.465 C103.002,4.457 102.948,4.361 102.948,4.177 C102.948,4.002 102.934,3.738 103.058,3.542 C103.182,3.347 103.333,3.205 103.511,3.117 C103.681,3.022 104.138,2.935 104.735,2.975 L105.640,3.023 L105.642,2.107 C105.642,1.636 105.654,1.328 105.677,1.185 C105.700,1.041 105.655,0.613 105.748,0.493 C105.833,0.374 105.983,0.256 106.052,0.232 C106.122,0.208 106.292,0.156 106.501,0.180 C106.811,0.212 107.035,0.303 107.190,0.471 C107.306,0.590 107.379,1.106 107.410,1.230 C107.441,1.354 107.469,1.660 107.477,2.130 L107.521,2.999 L109.008,2.999 C109.681,2.999 110.615,3.009 110.817,3.029 C111.018,3.049 111.184,3.103 111.316,3.191 C111.494,3.303 111.596,3.575 111.620,3.735 C111.643,3.894 111.374,4.094 110.948,4.094 C110.810,4.094 110.217,4.189 109.125,4.189 L107.488,4.189 L107.523,4.644 L107.546,5.099 L108.011,5.123 C108.343,5.147 108.918,5.223 109.170,5.350 C109.421,5.478 109.597,5.642 109.698,5.841 C109.868,6.176 109.773,6.622 109.676,7.025 C109.580,7.428 109.191,7.820 108.812,8.355 C108.603,8.634 108.464,8.834 108.394,8.954 C108.363,9.001 108.427,9.079 108.585,9.187 C108.744,9.295 108.965,9.412 109.247,9.540 C109.530,9.668 109.837,9.797 110.170,9.929 C110.503,10.061 110.851,10.185 111.215,10.300 C111.579,10.416 111.904,10.502 112.191,10.558 C112.647,10.653 113.544,10.426 113.858,10.526 C114.171,10.626 113.909,10.966 113.909,11.022 ZM96.067,20.576 C96.535,21.005 96.778,21.608 96.796,22.386 L92.348,22.386 C92.339,22.544 92.335,22.691 92.335,22.826 C92.335,23.540 92.519,24.118 92.889,24.558 C93.259,24.998 93.753,25.219 94.372,25.219 C94.784,25.219 95.150,25.125 95.468,24.939 C95.785,24.753 96.108,24.500 96.435,24.183 L96.834,24.481 C96.439,24.949 96.037,25.290 95.629,25.504 C95.220,25.719 94.754,25.826 94.230,25.826 C93.594,25.826 93.035,25.695 92.554,25.433 C92.072,25.171 91.709,24.802 91.464,24.326 C91.219,23.850 91.097,23.354 91.097,22.838 C91.097,22.021 91.381,21.332 91.948,20.773 C92.515,20.213 93.259,19.933 94.178,19.933 C94.969,19.933 95.599,20.148 96.067,20.576 ZM94.153,20.481 C93.706,20.481 93.347,20.594 93.076,20.820 C92.805,21.046 92.593,21.386 92.438,21.838 L95.635,21.838 C95.472,20.933 94.978,20.481 94.153,20.481 ZM93.230,7.709 C93.122,7.908 92.536,8.163 92.273,8.475 C92.041,8.754 91.834,8.930 91.652,9.001 C91.470,9.073 91.275,9.057 91.066,8.954 C90.810,8.810 90.237,8.674 89.347,8.547 L88.906,8.487 L88.883,10.629 L88.860,13.184 L88.442,13.399 C88.202,13.527 87.960,13.597 87.716,13.609 C87.472,13.621 87.300,13.571 87.199,13.459 C87.129,13.395 87.091,13.280 87.083,13.112 C87.075,12.944 87.083,12.170 87.106,11.635 C87.145,10.837 87.141,10.103 87.095,9.432 L87.025,8.499 L86.537,8.499 C86.181,8.499 85.674,8.535 85.016,8.606 C84.358,8.678 83.832,8.754 83.437,8.834 C82.771,8.970 82.377,8.994 82.253,8.906 C82.129,8.818 82.187,8.547 82.427,8.092 L82.427,8.080 C82.497,7.944 82.545,7.848 82.572,7.792 C82.599,7.737 82.649,7.667 82.723,7.583 C82.797,7.499 82.847,7.445 82.874,7.421 C82.901,7.397 82.975,7.366 83.095,7.326 C83.215,7.286 83.305,7.264 83.368,7.260 C83.429,7.256 83.563,7.250 83.768,7.242 C83.973,7.234 84.145,7.230 84.285,7.230 C84.424,7.230 84.656,7.230 84.981,7.230 C86.204,7.254 86.855,7.238 86.932,7.182 C87.025,7.118 87.087,6.378 87.118,4.961 C87.149,3.545 87.125,2.498 87.048,1.819 C86.994,1.452 86.973,1.169 86.984,0.969 C86.996,0.770 87.027,0.634 87.077,0.562 C87.127,0.490 87.226,0.423 87.373,0.359 C87.543,0.287 87.784,0.313 88.093,0.437 C88.403,0.560 88.623,0.718 88.755,0.909 C88.840,1.021 88.885,1.165 88.889,1.340 C88.892,1.516 88.871,1.983 88.825,2.741 C88.770,3.595 88.738,4.461 88.726,5.339 C88.714,6.216 88.732,6.751 88.778,6.943 C88.802,7.046 88.902,7.108 89.080,7.128 C89.258,7.148 90.254,7.158 91.268,7.158 C92.476,7.158 93.149,7.190 93.288,7.254 C93.389,7.310 93.389,7.429 93.288,7.613 C93.273,7.637 93.253,7.669 93.230,7.709 ZM85.713,3.711 C85.233,3.647 84.871,3.579 84.627,3.507 C84.383,3.435 84.165,3.335 83.971,3.208 C83.786,3.072 83.671,2.905 83.629,2.705 C83.586,2.506 83.627,2.310 83.751,2.118 C83.898,1.879 84.155,1.823 84.523,1.951 C84.890,2.079 85.430,2.418 86.143,2.968 C86.615,3.328 86.818,3.561 86.752,3.669 C86.686,3.776 86.340,3.790 85.713,3.711 ZM84.285,4.884 C84.834,5.091 85.256,5.227 85.550,5.291 C85.914,5.362 86.092,5.450 86.084,5.554 C86.084,5.618 86.015,5.698 85.876,5.793 C85.775,5.857 85.630,5.903 85.440,5.931 C85.250,5.959 84.935,5.977 84.494,5.985 C83.990,6.001 83.658,5.999 83.495,5.979 C83.333,5.959 83.154,5.897 82.961,5.793 C82.783,5.706 82.667,5.628 82.613,5.560 C82.559,5.492 82.527,5.394 82.520,5.267 C82.497,5.067 82.547,4.904 82.671,4.776 C82.810,4.632 83.002,4.568 83.246,4.584 C83.489,4.600 83.836,4.700 84.285,4.884 ZM81.463,4.405 L80.500,4.429 L80.476,5.099 L80.442,5.769 L81.103,6.176 C81.784,6.623 82.125,7.026 82.125,7.385 C82.125,7.473 82.113,7.535 82.090,7.571 C82.067,7.607 82.019,7.623 81.945,7.619 C81.871,7.615 81.775,7.593 81.655,7.553 C81.535,7.513 81.366,7.449 81.150,7.361 L80.500,7.086 L80.453,9.779 C80.430,11.567 80.477,12.799 80.392,12.943 C80.307,13.094 80.140,13.222 79.893,13.326 C79.645,13.429 79.401,13.477 79.161,13.469 C78.921,13.461 78.770,13.398 78.708,13.278 C78.646,13.158 78.733,12.194 78.697,10.917 C78.624,8.314 78.715,7.134 78.607,7.182 C78.568,7.190 78.208,7.573 77.527,8.331 C76.993,8.930 76.563,9.355 76.238,9.606 C75.913,9.857 75.557,10.043 75.170,10.162 C74.752,10.290 74.413,10.330 74.154,10.282 C73.895,10.234 73.236,10.026 73.035,9.794 C72.950,9.699 72.909,9.635 72.913,9.603 C72.917,9.571 72.973,9.523 73.081,9.459 C74.265,9.115 74.467,8.941 76.022,8.000 C76.670,7.608 77.082,6.883 77.515,6.380 C77.786,6.069 78.038,5.738 78.270,5.386 C78.502,5.035 78.603,4.840 78.572,4.800 C78.533,4.752 78.069,4.788 77.179,4.908 C77.032,4.924 76.830,4.948 76.575,4.979 C75.770,5.083 75.298,5.135 75.158,5.135 C75.019,5.135 74.930,5.087 74.891,4.991 C74.884,4.967 74.876,4.948 74.868,4.932 C74.829,4.836 74.814,4.748 74.822,4.668 C74.829,4.588 74.864,4.481 74.926,4.345 C75.096,3.978 75.344,3.727 75.669,3.591 C75.994,3.455 76.378,3.447 76.819,3.567 C77.337,3.703 77.844,3.731 78.340,3.651 L78.700,3.591 L78.665,2.980 L78.642,2.370 L77.585,2.334 C77.121,2.310 76.799,2.280 76.621,2.244 C76.443,2.208 76.242,2.130 76.018,2.011 C75.669,1.843 75.484,1.716 75.460,1.628 C75.422,1.500 75.514,1.424 75.739,1.400 C75.917,1.376 76.165,1.388 76.482,1.436 C77.434,1.556 78.599,1.372 79.977,0.886 C80.488,0.702 80.856,0.598 81.080,0.574 C81.305,0.550 81.490,0.594 81.637,0.706 C81.792,0.810 81.914,0.957 82.003,1.149 C82.092,1.340 82.106,1.472 82.044,1.544 C81.912,1.704 81.514,1.835 80.848,1.939 L80.453,2.011 L80.453,2.705 C80.453,3.096 80.482,3.330 80.540,3.405 C80.598,3.481 80.778,3.519 81.080,3.519 C82.273,3.519 82.419,3.639 82.566,3.878 C82.713,4.102 82.675,4.249 82.450,4.321 C82.280,4.369 81.951,4.397 81.463,4.405 ZM73.773,19.996 C74.037,19.996 74.243,20.062 74.390,20.194 C74.537,20.327 74.611,20.494 74.611,20.696 C74.611,20.829 74.556,20.946 74.446,21.047 C74.337,21.148 74.214,21.199 74.078,21.199 C73.973,21.199 73.874,21.164 73.784,21.094 C73.580,20.922 73.395,20.837 73.229,20.837 C73.055,20.837 72.849,20.918 72.611,21.082 C72.374,21.245 72.156,21.448 71.960,21.689 L71.960,24.317 C71.960,24.636 72.009,24.856 72.107,24.977 C72.205,25.097 72.417,25.158 72.742,25.158 L72.934,25.158 L72.934,25.783 L70.068,25.783 L70.068,25.158 L70.306,25.158 C70.631,25.158 70.833,25.093 70.912,24.965 C70.992,24.836 71.031,24.620 71.031,24.317 L71.031,20.953 L70.068,20.953 L70.068,20.486 C70.559,20.455 71.039,20.292 71.507,19.996 L71.926,19.996 L71.926,21.070 C72.198,20.736 72.504,20.473 72.844,20.282 C73.183,20.091 73.493,19.996 73.773,19.996 ZM70.887,6.823 C70.531,7.397 69.977,8.156 69.637,8.906 C69.335,9.569 68.985,10.200 68.632,10.711 C68.280,11.221 67.907,11.658 67.512,12.021 C67.117,12.385 66.699,12.670 66.258,12.877 C66.018,12.997 65.805,13.081 65.619,13.129 C65.434,13.176 65.190,13.204 64.888,13.212 C64.524,13.236 64.272,13.234 64.133,13.206 C63.994,13.178 63.781,13.093 63.495,12.949 C63.100,12.750 62.687,12.436 62.258,12.009 C61.828,11.582 61.613,11.273 61.613,11.082 C61.613,10.954 61.625,10.886 61.648,10.878 C61.702,10.854 62.132,10.922 62.937,11.082 C62.991,11.098 63.045,11.110 63.100,11.118 L64.063,11.333 L64.679,11.141 C66.134,10.679 67.113,9.377 67.949,7.517 C68.197,6.966 68.321,6.579 68.321,6.356 C68.321,6.013 68.135,5.706 67.764,5.434 C67.392,5.163 66.869,4.952 66.196,4.800 C66.157,4.792 66.103,4.780 66.033,4.764 C65.832,4.724 65.689,4.694 65.604,4.674 C65.519,4.654 65.410,4.654 65.279,4.674 C65.147,4.694 65.060,4.716 65.017,4.740 C64.975,4.764 64.886,4.844 64.750,4.979 C64.615,5.115 64.507,5.241 64.425,5.356 C64.344,5.472 64.199,5.678 63.990,5.973 C63.912,6.077 63.854,6.157 63.816,6.212 C63.227,7.026 62.713,7.669 62.271,8.140 C61.830,8.611 61.230,9.145 60.472,9.744 C59.543,10.478 58.684,11.098 57.894,11.605 C57.104,12.112 56.470,12.453 55.990,12.628 C55.587,12.772 55.243,12.830 54.956,12.802 C54.670,12.774 54.302,12.648 53.853,12.425 C53.443,12.217 53.176,12.046 53.052,11.910 C52.928,11.775 52.909,11.631 52.994,11.479 C53.048,11.368 53.128,11.292 53.232,11.252 C53.337,11.212 53.590,11.156 53.993,11.084 C54.968,10.909 56.048,10.506 57.232,9.875 C58.417,9.245 59.469,8.515 60.390,7.685 C60.917,7.206 61.495,6.553 62.126,5.728 C62.757,4.902 63.030,4.445 62.945,4.357 C62.883,4.293 62.128,4.245 60.681,4.213 C59.783,4.189 59.156,4.185 58.800,4.201 C58.444,4.217 58.126,4.257 57.848,4.321 C57.368,4.433 57.058,4.483 56.919,4.471 C56.779,4.459 56.710,4.377 56.710,4.225 C56.710,4.042 56.816,3.758 57.029,3.375 C57.242,2.992 57.441,2.717 57.627,2.549 C57.859,2.358 58.074,2.248 58.271,2.220 C58.469,2.192 58.684,2.238 58.916,2.358 C59.179,2.501 59.547,2.605 60.019,2.669 C60.491,2.733 61.203,2.785 62.155,2.825 L63.839,2.873 L64.025,2.549 C64.141,2.358 64.251,2.087 64.356,1.735 C64.460,1.384 64.512,1.113 64.512,0.921 C64.512,0.738 64.582,0.602 64.721,0.514 C65.132,0.219 65.642,0.367 66.254,0.957 C66.478,1.181 66.585,1.420 66.573,1.676 C66.562,1.931 66.428,2.242 66.173,2.609 C65.925,2.984 65.828,3.192 65.882,3.232 C66.014,3.368 66.428,3.513 67.125,3.669 C67.822,3.824 68.890,3.926 69.540,3.974 C69.927,3.990 70.198,4.016 70.353,4.052 C70.508,4.088 70.636,4.147 70.736,4.231 C70.837,4.315 70.972,4.473 71.143,4.704 C71.321,4.960 71.410,5.239 71.410,5.542 C71.410,5.742 71.379,5.915 71.317,6.063 C71.255,6.210 71.112,6.464 70.887,6.823 ZM54.548,20.040 C55.172,19.974 55.829,20.161 56.291,20.598 C57.025,21.294 56.835,22.174 56.835,23.088 C56.835,23.546 56.835,24.004 56.835,24.462 C56.835,24.732 56.853,24.920 56.890,25.027 C56.926,25.135 57.011,25.206 57.144,25.242 C57.277,25.277 57.533,25.295 57.864,25.295 L57.864,25.783 L54.309,25.783 L54.309,25.295 L54.467,25.295 C54.830,25.295 55.375,25.244 55.484,25.141 C55.593,25.037 55.647,24.791 55.647,24.402 C55.647,23.822 55.669,23.241 55.659,22.660 C55.652,22.212 55.723,21.647 55.478,21.251 C55.304,20.971 54.983,20.817 54.663,20.778 C53.936,20.689 53.383,20.999 52.869,21.496 C52.572,21.784 52.746,22.788 52.746,23.186 C52.746,23.592 52.746,23.997 52.746,24.402 C52.746,24.688 52.772,24.893 52.824,25.015 C52.877,25.139 52.957,25.216 53.066,25.248 C53.175,25.279 53.367,25.295 53.617,25.295 L53.786,25.295 L53.786,25.783 L50.412,25.783 L50.412,25.295 L50.558,25.295 C50.824,25.295 51.011,25.277 51.120,25.242 C51.229,25.206 51.306,25.123 51.350,24.992 C51.394,24.861 51.417,24.637 51.417,24.319 L51.417,21.010 L50.241,21.010 L50.241,20.522 C50.596,20.490 51.036,20.442 51.217,20.379 C51.398,20.315 51.642,20.200 51.949,20.034 L52.697,20.034 C52.697,20.034 52.697,20.978 52.698,20.977 C53.250,20.513 53.818,20.117 54.548,20.040 ZM50.851,2.781 C50.642,2.988 50.380,3.150 50.067,3.266 C50.040,3.275 50.020,3.521 49.225,3.367 C49.016,3.335 47.907,3.204 47.094,2.980 C45.546,2.573 44.377,2.370 43.587,2.370 L42.949,2.370 L42.984,3.208 L43.007,4.046 L45.143,4.046 C45.801,4.046 46.577,4.048 46.844,4.052 C47.111,4.056 47.351,4.080 47.564,4.124 C47.776,4.167 47.906,4.219 47.953,4.279 C47.999,4.339 48.049,4.441 48.103,4.584 C48.158,4.704 48.185,4.850 48.185,5.021 C48.185,5.193 48.162,5.486 48.115,5.901 C48.038,6.564 47.980,7.701 47.941,9.313 C47.925,10.222 47.904,11.554 47.877,11.925 C47.850,12.296 47.803,12.566 47.738,12.733 C47.672,12.901 47.565,13.029 47.418,13.116 C47.256,13.204 47.088,13.238 46.913,13.218 C46.739,13.198 46.157,13.124 45.794,12.997 C45.205,12.781 44.628,12.644 44.063,12.584 C43.498,12.524 42.480,12.494 41.010,12.494 C39.516,12.494 38.496,12.530 37.950,12.602 C37.404,12.674 36.876,12.837 36.365,13.093 C35.738,13.412 35.289,13.412 35.018,13.093 C34.925,12.981 34.865,12.813 34.838,12.590 C34.811,12.366 34.786,11.792 34.763,10.866 C34.716,9.629 34.654,7.888 34.577,7.026 C34.500,6.228 34.461,5.610 34.461,5.171 C34.461,4.876 34.475,4.674 34.502,4.566 C34.529,4.459 34.593,4.349 34.693,4.237 C34.802,4.118 34.894,4.048 34.972,4.028 C35.049,4.008 35.204,4.010 35.436,4.034 C36.644,4.177 37.584,4.197 38.258,4.094 L39.059,3.974 L39.059,3.172 L39.059,2.370 L38.386,2.370 C37.550,2.370 36.617,2.454 35.587,2.621 C34.558,2.789 33.784,2.980 33.265,3.196 C32.909,3.348 32.653,3.411 32.499,3.387 C32.267,3.324 32.145,3.128 32.133,2.801 C32.121,2.474 32.214,2.129 32.412,1.765 C32.609,1.402 32.851,1.153 33.137,1.017 C33.370,0.914 33.546,0.858 33.666,0.850 C33.786,0.842 34.097,0.870 34.600,0.933 C35.204,0.997 37.789,1.041 42.357,1.065 C45.430,1.089 47.620,1.121 48.928,1.161 C50.237,1.201 50.933,1.265 51.018,1.352 C51.065,1.400 51.590,1.612 51.396,1.979 C51.203,2.346 51.021,2.613 50.851,2.781 ZM46.026,6.847 C46.026,6.312 45.987,5.953 45.910,5.769 C45.832,5.586 45.670,5.454 45.422,5.374 C45.166,5.295 44.694,5.255 44.005,5.255 L42.960,5.243 L42.960,6.129 C42.960,6.655 42.993,7.056 43.059,7.332 C43.125,7.607 43.239,7.828 43.402,7.996 C43.502,8.108 43.603,8.174 43.704,8.193 C43.804,8.213 44.044,8.211 44.423,8.187 C44.958,8.163 45.360,8.084 45.631,7.948 L46.026,7.733 L46.026,6.847 ZM38.780,5.410 C38.401,5.323 37.925,5.326 37.352,5.422 C36.779,5.518 36.454,5.646 36.377,5.805 C36.261,6.013 36.203,6.486 36.203,7.224 C36.203,7.962 36.257,8.419 36.365,8.594 C36.419,8.690 36.621,8.694 36.969,8.606 C37.317,8.519 37.646,8.379 37.956,8.187 C38.312,7.964 38.571,7.703 38.734,7.403 C38.896,7.104 38.997,6.711 39.036,6.224 L39.082,5.458 L38.780,5.410 ZM41.451,2.250 C41.373,2.202 41.209,2.182 40.957,2.190 C40.706,2.198 40.530,2.230 40.429,2.286 C40.360,2.326 40.315,2.400 40.296,2.507 C40.276,2.615 40.267,2.829 40.267,3.148 C40.267,3.515 40.278,3.739 40.301,3.818 C40.325,3.898 40.398,3.962 40.522,4.010 C40.708,4.074 40.913,4.094 41.137,4.070 L41.521,4.046 L41.544,3.196 C41.567,2.621 41.536,2.306 41.451,2.250 ZM42.206,8.941 C42.059,8.838 41.960,8.738 41.910,8.642 C41.859,8.547 41.807,8.363 41.753,8.092 C41.683,7.653 41.629,7.098 41.590,6.428 L41.544,5.362 L41.265,5.303 C41.095,5.271 40.952,5.255 40.836,5.255 C40.619,5.271 40.487,5.325 40.441,5.416 C40.394,5.508 40.355,5.789 40.325,6.260 C40.270,7.090 40.127,7.713 39.895,8.128 C39.663,8.543 39.280,8.882 38.746,9.145 C38.498,9.257 38.291,9.329 38.124,9.361 C37.958,9.392 37.673,9.408 37.271,9.408 L36.365,9.408 L36.365,9.803 C36.365,10.075 36.419,10.970 36.528,11.105 C36.613,11.209 36.760,11.273 36.969,11.297 C37.178,11.321 37.801,11.345 38.838,11.369 C40.278,11.393 41.745,11.373 43.239,11.309 C44.214,11.261 44.847,11.221 45.137,11.189 C45.428,11.157 45.608,11.105 45.677,11.034 C45.755,10.946 45.836,10.029 45.921,9.666 C46.006,9.303 46.033,9.041 46.002,8.882 C45.995,8.794 45.960,8.754 45.898,8.762 C45.844,8.778 45.693,8.838 45.445,8.941 C44.857,9.197 44.265,9.325 43.669,9.325 C43.073,9.325 42.585,9.197 42.206,8.941 ZM24.058,2.948 C23.028,3.899 21.560,4.330 20.122,4.391 C18.685,4.453 17.258,4.179 15.852,3.890 C13.210,3.347 10.565,2.745 7.865,2.604 C6.360,2.525 4.788,2.605 3.460,3.277 C3.294,3.361 3.133,3.456 2.979,3.561 C1.944,4.267 1.167,5.482 1.351,6.720 C1.659,8.793 4.042,9.682 5.853,10.283 C6.230,8.796 6.712,7.333 7.295,5.906 C7.525,5.344 7.861,4.712 8.487,4.593 C9.130,4.471 9.747,5.006 9.917,5.606 C10.086,6.205 9.929,6.839 9.772,7.441 C9.474,8.589 9.175,9.737 8.876,10.885 C10.611,11.200 12.369,11.406 14.133,11.501 C14.287,11.509 14.454,11.514 14.583,11.433 C14.727,11.342 14.783,11.170 14.829,11.011 C15.166,9.851 15.503,8.690 15.840,7.529 C16.022,6.903 16.222,6.246 16.714,5.793 C17.205,5.340 18.087,5.197 18.556,5.670 C18.970,6.087 18.889,6.744 18.774,7.305 C18.460,8.833 18.096,10.353 17.683,11.860 C19.391,12.201 21.242,12.621 22.328,13.915 C23.139,14.882 23.369,16.183 23.326,17.417 C23.249,19.633 22.347,21.807 20.846,23.506 C19.392,25.151 16.937,26.520 14.698,25.360 C12.441,24.192 11.555,22.388 11.555,22.388 C11.555,22.388 8.761,25.614 6.934,25.462 C5.108,25.310 2.636,24.065 3.281,20.559 C3.926,17.054 5.376,11.821 5.376,11.821 C5.398,11.743 3.171,10.846 2.988,10.755 C2.057,10.293 1.166,9.699 0.616,8.830 C-0.083,7.727 -0.127,6.344 0.172,5.089 C1.165,0.910 5.837,0.062 9.752,0.223 C12.000,0.315 14.355,0.625 16.471,1.381 C19.882,2.600 22.390,3.582 22.936,1.059 C23.057,0.499 23.905,0.297 24.358,0.607 C24.743,0.870 24.882,1.375 24.787,1.815 C24.691,2.254 24.397,2.635 24.058,2.948 ZM16.954,23.760 C19.928,23.644 21.614,19.666 21.769,17.316 C21.828,16.414 21.604,15.458 20.958,14.791 C20.078,13.884 18.514,13.527 17.304,13.193 C17.304,13.193 14.778,20.661 14.537,21.372 C14.295,22.083 14.349,23.862 16.954,23.760 ZM8.385,23.100 C11.831,20.994 13.198,16.546 13.837,12.924 C12.123,12.720 10.396,12.725 8.678,12.375 C8.158,12.270 6.695,18.609 6.558,19.111 C5.269,23.862 6.693,24.090 8.385,23.100 ZM39.385,22.984 C39.170,22.800 38.913,22.674 38.654,22.562 C37.969,22.267 37.251,22.062 36.533,21.871 C35.966,21.721 35.269,21.501 34.839,21.067 C34.024,20.244 34.226,18.779 35.063,18.058 C35.698,17.510 36.744,17.351 37.549,17.334 C38.493,17.314 39.506,17.511 40.274,18.078 C40.260,17.794 40.272,17.505 40.272,17.221 L40.782,17.221 L40.782,20.136 C40.782,20.136 39.941,20.136 39.940,20.136 C39.961,20.136 39.916,19.348 39.901,19.260 C39.863,19.042 39.782,18.853 39.631,18.694 C39.185,18.223 38.474,18.048 37.859,18.030 C37.327,18.015 36.767,18.117 36.352,18.462 C35.938,18.807 35.720,19.439 35.958,19.930 C36.082,20.188 36.313,20.378 36.563,20.508 C36.813,20.637 37.086,20.713 37.353,20.797 C37.951,20.987 38.533,21.226 39.126,21.434 C39.668,21.625 40.233,21.797 40.683,22.162 C41.862,23.118 41.211,25.095 39.992,25.683 C39.543,25.900 39.034,25.933 38.538,25.940 C38.031,25.947 37.517,25.931 37.027,25.795 C36.383,25.617 35.809,25.242 35.246,24.872 C35.245,25.248 35.244,25.624 35.242,26.000 C35.028,26.000 34.814,26.000 34.600,26.000 C34.600,26.000 34.600,23.091 34.600,22.775 L35.242,22.775 C35.673,24.009 36.744,25.019 38.041,25.133 C38.476,25.171 38.934,25.105 39.296,24.855 C39.658,24.605 39.902,24.146 39.825,23.703 C39.775,23.419 39.601,23.169 39.385,22.984 ZM46.399,19.996 C47.190,19.996 47.820,20.210 48.288,20.639 C48.757,21.067 48.999,21.670 49.017,22.448 L44.569,22.448 C44.560,22.607 44.556,22.754 44.556,22.888 C44.556,23.603 44.741,24.180 45.110,24.620 C45.480,25.061 45.974,25.281 46.593,25.281 C47.005,25.281 47.371,25.188 47.689,25.001 C48.007,24.815 48.329,24.563 48.656,24.245 L49.055,24.543 C48.660,25.011 48.258,25.353 47.850,25.567 C47.442,25.781 46.975,25.888 46.451,25.888 C45.815,25.888 45.256,25.757 44.775,25.495 C44.294,25.233 43.931,24.864 43.686,24.388 C43.441,23.912 43.318,23.416 43.318,22.900 C43.318,22.083 43.602,21.394 44.169,20.835 C44.736,20.275 45.480,19.996 46.399,19.996 ZM47.856,21.900 C47.693,20.996 47.199,20.543 46.374,20.543 C45.927,20.543 45.568,20.656 45.297,20.883 C45.026,21.109 44.814,21.448 44.659,21.900 L47.856,21.900 ZM60.517,18.417 C60.336,18.417 60.183,18.352 60.058,18.224 C59.934,18.095 59.871,17.938 59.871,17.751 C59.871,17.564 59.934,17.408 60.058,17.284 C60.183,17.159 60.336,17.097 60.517,17.097 C60.691,17.097 60.840,17.161 60.965,17.290 C61.089,17.418 61.152,17.572 61.152,17.751 C61.152,17.938 61.089,18.095 60.965,18.224 C60.840,18.352 60.691,18.417 60.517,18.417 ZM60.585,19.996 L60.993,19.996 L60.993,24.574 C60.993,24.831 61.053,24.992 61.174,25.058 C61.295,25.125 61.461,25.158 61.673,25.158 L61.933,25.158 L61.933,25.783 L59.101,25.783 L59.101,25.158 L59.328,25.158 C59.645,25.158 59.847,25.105 59.934,25.000 C60.021,24.895 60.064,24.663 60.064,24.305 L60.064,20.953 L59.101,20.953 L59.101,20.486 C59.675,20.409 60.170,20.245 60.585,19.996 ZM66.177,19.996 C67.077,19.996 67.801,20.261 68.349,20.790 C68.896,21.319 69.170,22.016 69.170,22.880 C69.170,23.752 68.892,24.453 68.336,24.982 C67.781,25.512 67.035,25.776 66.101,25.776 C65.183,25.776 64.455,25.508 63.916,24.971 C63.377,24.434 63.108,23.741 63.108,22.892 C63.108,22.036 63.390,21.339 63.954,20.802 C64.518,20.264 65.259,19.996 66.177,19.996 ZM64.794,24.650 C65.109,25.058 65.553,25.263 66.126,25.263 C66.682,25.263 67.130,25.047 67.471,24.615 C67.812,24.182 67.983,23.601 67.983,22.869 C67.983,22.152 67.820,21.586 67.496,21.169 C67.172,20.753 66.715,20.545 66.126,20.545 C65.587,20.545 65.151,20.763 64.819,21.199 C64.486,21.635 64.320,22.211 64.320,22.927 C64.320,23.667 64.478,24.241 64.794,24.650 ZM79.444,23.202 L75.943,23.202 L75.943,22.378 L79.444,22.378 L79.444,23.202 ZM82.419,17.415 L86.849,17.415 L86.894,17.415 L89.681,17.415 L89.681,19.527 L89.221,19.527 C89.221,19.527 89.009,18.421 88.734,18.160 C88.458,17.899 86.975,17.973 86.447,17.973 C86.220,17.973 86.080,17.998 86.027,18.048 C85.975,18.099 86.055,18.517 86.055,18.758 L86.055,24.493 C86.055,24.898 86.128,25.259 86.275,25.352 C86.423,25.446 87.504,25.492 87.866,25.492 L87.866,25.971 L83.156,25.971 L83.156,25.492 C83.458,25.492 84.501,25.471 84.633,25.428 C84.765,25.385 84.850,25.310 84.888,25.200 C84.926,25.091 84.945,24.797 84.945,24.540 L84.945,18.676 C84.945,18.489 84.924,18.203 84.883,18.152 C84.841,18.102 84.730,18.077 84.549,18.077 C83.937,18.077 82.377,17.902 82.120,18.171 C81.863,18.439 81.917,18.936 81.683,19.527 L81.185,19.527 L81.185,17.415 L82.363,17.415 L82.419,17.415 ZM101.753,20.045 C102.445,20.045 103.019,20.207 103.475,20.530 C103.930,20.853 104.158,21.178 104.158,21.505 C104.158,21.668 104.105,21.799 104.000,21.896 C103.894,21.993 103.768,22.042 103.621,22.042 C103.483,22.042 103.377,22.005 103.304,21.931 C103.230,21.857 103.059,21.567 102.791,21.061 C102.734,20.937 102.595,20.824 102.376,20.722 C102.156,20.621 101.940,20.571 101.728,20.571 C101.191,20.571 100.743,20.783 100.385,21.207 C100.027,21.631 99.848,22.190 99.848,22.883 C99.848,23.568 100.031,24.131 100.397,24.570 C100.764,25.010 101.219,25.230 101.765,25.230 C102.538,25.230 103.251,24.853 103.902,24.097 L104.281,24.389 C103.531,25.347 102.636,25.826 101.594,25.826 C100.780,25.826 100.092,25.548 99.530,24.991 C98.969,24.434 98.688,23.743 98.688,22.918 C98.688,22.085 98.975,21.398 99.549,20.857 C100.123,20.316 100.857,20.045 101.753,20.045 ZM106.499,17.052 L106.929,17.052 L106.929,21.370 C107.745,20.677 108.496,20.331 109.183,20.331 C109.667,20.331 110.071,20.482 110.396,20.786 C110.720,21.090 110.883,21.459 110.883,21.895 L110.883,24.698 C110.883,24.947 110.901,25.124 110.939,25.230 C110.977,25.335 111.058,25.405 111.183,25.440 C111.307,25.475 111.521,25.492 111.823,25.492 L111.823,25.971 L108.968,25.971 L108.968,25.492 L109.183,25.492 C109.523,25.492 109.737,25.440 109.823,25.335 C109.910,25.230 109.954,24.979 109.954,24.581 L109.954,22.643 C109.954,22.075 109.882,21.672 109.739,21.434 C109.595,21.197 109.315,21.078 108.900,21.078 C108.273,21.078 107.616,21.386 106.929,22.001 L106.929,24.850 C106.929,25.130 106.969,25.307 107.048,25.381 C107.127,25.455 107.337,25.492 107.677,25.492 L107.903,25.492 L107.903,25.971 L105.037,25.971 L105.037,25.492 L105.207,25.492 C105.585,25.492 105.810,25.430 105.881,25.305 C105.953,25.181 105.989,24.947 105.989,24.605 L105.989,18.021 L105.037,18.021 L105.037,17.530 C105.664,17.437 106.151,17.277 106.499,17.052 Z"/>
</svg>